#!OML:ASF F:\VICON\USERDATA\INSTALL\rory3\rory3.ASF
:FULLY-SPECIFIED
:DEGREES
233
root -2.65257 18.5798 2.17519 -151.756 84.8606 -149.197
lowerback 8.08612 2.23937 7.07065
upperback 0.510345 3.8022 2.535
thorax -3.72395 1.81874 -1.74111
lowerneck -7.85925 2.37502 -1.38143
upperneck 28.3877 2.35018 8.98755
head 10.1669 2.37827 3.77194
rclavicle 2.045e-014 1.51076e-014
rhumerus -41.3046 1.07493 -71.3207
rradius 31.3455
rwrist 14.7923
rhand -25.6142 4.24527
rfingers 7.12502
rthumb 0.918327 -25.7325
lclavicle 2.045e-014 1.51076e-014
lhumerus -32.6928 16.9658 74.9441
lradius 25.0307
lwrist -19.8296
lhand -35.706 26.4082
lfingers 7.12502
lthumb -8.82612 56.2036
rfemur -11.5458 14.502 21.9864
rtibia 24.2183
rfoot -15.6629 -17.502
rtoes 4.38826
lfemur -9.13668 -2.47399 -14.2426
ltibia 52.1404
lfoot -5.52532 -2.88104
ltoes -7.07311
234
root -2.59485 18.578 2.18716 -149.521 85.004 -146.713
lowerback 8.23462 2.28327 7.35613
upperback 0.586995 3.90821 2.66635
thorax -3.70995 1.87216 -1.77855
lowerneck -7.70801 2.39864 -1.43999
upperneck 28.4272 2.42294 8.91024
head 10.1469 2.39836 3.75936
rclavicle -3.8763e-015 -1.82882e-014
rhumerus -41.1459 1.46027 -71.3162
rradius 31.3377
rwrist 14.6368
rhand -25.8777 3.80121
rfingers 7.12502
rthumb 0.663827 -26.1775
lclavicle -3.8763e-015 -1.82882e-014
lhumerus -32.9373 16.8351 74.8689
lradius 25.4426
lwrist -19.4476
lhand -35.879 26.4756
lfingers 7.12502
lthumb -8.99309 56.264
rfemur -11.0947 14.4497 22.2763
rtibia 24.3116
rfoot -16.1378 -17.0277
rtoes 5.61881
lfemur -9.803 -2.00379 -13.9823
ltibia 53.6641
lfoot -5.29603 -3.08178
ltoes -6.64001
235
root -2.53274 18.582 2.19607 -150.177 85.3695 -147.077
lowerback 8.38686 2.39175 7.39197
upperback 0.685878 4.06722 2.69034
thorax -3.67806 1.95442 -1.79459
lowerneck -7.50237 2.35518 -1.65937
upperneck 28.5132 2.41444 8.91463
head 10.1335 2.37656 3.79729
rclavicle 3.76697e-014 3.65764e-014
rhumerus -41.0331 1.81026 -71.2935
rradius 31.3577
rwrist 14.3245
rhand -25.809 3.5625
rfingers 7.12502
rthumb 0.730248 -26.416
lclavicle 3.76697e-014 3.65764e-014
lhumerus -33.2589 17.0429 74.7
lradius 25.8259
lwrist -19.4761
lhand -35.827 26.0642
lfingers 7.12502
lthumb -8.94286 55.8546
rfemur -10.6092 14.4097 22.1981
rtibia 24.4895
rfoot -16.6313 -16.4812
rtoes 6.52974
lfemur -10.3431 -1.51188 -14.1727
ltibia 55.0279
lfoot -5.40886 -3.38098
ltoes -6.70441
236
root -2.4752 18.5842 2.2068 -152.07 85.6761 -148.754
lowerback 8.52803 2.43543 7.2811
upperback 0.723577 4.12793 2.71372
thorax -3.72199 1.98579 -1.72221
lowerneck -7.27099 2.36604 -1.98086
upperneck 28.6695 2.44789 9.14261
head 10.1315 2.392 3.94067
rclavicle 1.02623e-014 7.95139e-016
rhumerus -40.904 2.25378 -71.3646
rradius 31.3604
rwrist 14.1952
rhand -26.0099 3.30055
rfingers 7.12502
rthumb 0.536164 -26.6785
lclavicle 1.02623e-014 7.95139e-016
lhumerus -33.7631 17.3488 74.4664
lradius 26.2477
lwrist -19.5771
lhand -35.9611 25.5481
lfingers 7.12502
lthumb -9.07227 55.333
rfemur -10.2495 14.4763 22.0581
rtibia 24.699
rfoot -16.9974 -16.2235
rtoes 6.60128
lfemur -11.0105 -1.14725 -14.4305
ltibia 56.2717
lfoot -5.51187 -3.91214
ltoes -6.14409
237
root -2.42388 18.5801 2.22053 -151.018 85.7508 -147.613
lowerback 8.58047 2.44148 7.36586
upperback 0.713643 4.16011 2.8473
thorax -3.7639 2.0014 -1.63706
lowerneck -7.102 2.37729 -2.11058
upperneck 28.878 2.49095 9.19127
head 10.1683 2.41307 3.99214
rclavicle 1.38155e-014 -4.77083e-015
rhumerus -40.7476 2.80612 -71.4235
rradius 31.4053
rwrist 14.1128
rhand -26.2383 2.83073
rfingers 7.12502
rthumb 0.315544 -27.1488
lclavicle 1.38155e-014 -4.77083e-015
lhumerus -34.2127 17.5079 74.3221
lradius 26.6516
lwrist -19.4368
lhand -36.2183 25.4249
lfingers 7.12502
lthumb -9.3204 55.1989
rfemur -10.0722 14.678 22.2356
rtibia 24.9237
rfoot -17.4582 -16.1638
rtoes 6.86672
lfemur -11.9035 -0.758439 -14.2874
ltibia 57.4061
lfoot -5.431 -4.71426
ltoes -5.66545
